<?xml version="1.0" standalone="no"?>
<!DOCTYPE svg PUBLIC "-//W3C//DTD SVG 20010904//EN"
 "http://www.w3.org/TR/2001/REC-SVG-20010904/DTD/svg10.dtd">
<svg version="1.0" xmlns="http://www.w3.org/2000/svg"
 width="2578.000000pt" height="1591.000000pt" viewBox="0 0 2578.000000 1591.000000"
 preserveAspectRatio="xMidYMid meet">
<metadata>
Created by potrace 1.16, written by Peter Selinger 2001-2019
</metadata>
<g transform="translate(0.000000,1591.000000) scale(0.100000,-0.100000)"
fill="#000000" stroke="none">
<path d="M1810 15336 c0 -282 -1 -276 48 -276 40 1 47 17 52 117 l5 98 110 5
110 5 3 44 c2 28 -1 47 -10 52 -7 5 -59 9 -115 9 -100 0 -103 1 -105 23 -2 31
3 71 9 77 2 3 55 6 116 6 62 1 118 2 125 3 9 1 12 15 10 49 l-3 47 -177 3
-178 2 0 -264z"/>
<path d="M3947 15593 c-4 -3 -7 -122 -7 -264 l0 -259 25 -6 c14 -3 36 -3 50 0
l25 6 0 155 c0 84 4 156 9 160 8 4 78 -100 104 -155 4 -8 29 -49 56 -90 l48
-75 49 0 49 0 3 268 2 268 -47 -3 -48 -3 -3 -150 c-1 -82 -4 -156 -7 -164 -3
-8 -45 50 -97 135 -50 82 -98 157 -106 167 -15 17 -91 25 -105 10z"/>
<path d="M4438 15594 c-7 -7 12 -54 22 -54 3 0 16 -19 29 -42 12 -24 27 -52
34 -62 7 -11 28 -45 47 -75 34 -54 35 -60 40 -176 5 -117 6 -120 29 -123 12
-2 34 -1 47 2 23 6 24 9 24 112 l0 106 68 111 c37 61 69 116 71 122 2 5 15 24
28 41 12 17 20 34 16 37 -3 4 -30 7 -58 7 l-52 0 -37 -70 c-64 -123 -70 -131
-89 -117 -8 6 -25 30 -37 52 -66 123 -72 130 -126 133 -27 2 -53 0 -56 -4z"/>
<path d="M6613 15584 c-39 -17 -95 -90 -91 -119 5 -31 72 -34 89 -3 21 40 51
57 100 58 60 0 84 -25 80 -82 0 -9 -22 -33 -48 -53 -26 -20 -55 -48 -65 -63
-24 -36 -24 -89 0 -94 36 -8 62 5 78 37 8 18 38 53 66 77 64 54 84 98 67 142
-17 43 -57 85 -98 102 -42 18 -136 17 -178 -2z"/>
<path d="M7207 15593 c-4 -3 -7 -122 -7 -264 0 -280 -2 -269 58 -269 47 0 51
10 54 115 l3 100 80 3 c139 5 205 57 205 161 0 68 -28 115 -87 149 -24 13
-294 18 -306 5z m263 -118 c24 -22 25 -42 3 -67 -13 -14 -31 -18 -90 -18 l-73
0 0 49 c0 56 2 57 87 56 36 -1 59 -7 73 -20z"/>
<path d="M10217 15594 c-4 -4 -7 -38 -7 -76 0 -76 -12 -92 -52 -64 -33 23 -92
20 -136 -8 -46 -29 -54 -39 -75 -96 -21 -56 -21 -92 -2 -156 35 -114 130 -162
225 -114 47 24 50 24 50 5 0 -16 37 -29 67 -23 17 3 18 19 18 268 l0 265 -40
3 c-23 2 -44 0 -48 -4z m-36 -232 c26 -28 39 -96 25 -140 -14 -47 -36 -70 -74
-78 -23 -5 -36 0 -63 24 -32 29 -34 34 -34 97 0 63 2 68 34 97 27 25 39 29 65
24 17 -4 38 -14 47 -24z"/>
<path d="M12369 15358 c0 -134 -2 -251 -4 -261 -4 -23 35 -42 69 -33 l26 6 0
144 c0 186 8 210 45 139 11 -21 29 -51 40 -68 21 -31 26 -40 71 -115 65 -109
83 -122 152 -104 l22 6 -2 262 -3 261 -45 0 -45 0 -5 -154 c-3 -90 -9 -156
-15 -158 -5 -1 -20 14 -33 35 -33 54 -45 73 -67 107 -11 16 -28 45 -38 64 -57
104 -63 111 -117 111 l-50 0 -1 -242z"/>
<path d="M13757 15593 c-9 -8 -7 -471 2 -503 7 -27 29 -35 65 -26 22 5 23 11
30 158 10 209 22 211 62 13 16 -86 35 -160 41 -166 6 -6 25 -9 44 -7 38 3 34
-7 90 230 18 75 36 135 41 132 4 -3 8 -60 8 -127 0 -179 7 -226 36 -233 12 -3
32 -3 43 1 21 6 21 12 21 271 l0 264 -74 0 c-47 0 -78 -4 -82 -12 -4 -6 -14
-37 -21 -67 -27 -107 -42 -166 -54 -216 l-12 -50 -14 33 c-7 17 -18 53 -24 80
-6 26 -15 55 -20 64 -5 10 -9 28 -9 41 0 13 -7 47 -15 75 l-16 52 -68 0 c-37
0 -71 -3 -74 -7z"/>
<path d="M5223 15564 c-37 -21 -43 -30 -43 -58 0 -25 -5 -35 -20 -39 -15 -4
-20 -14 -20 -36 0 -20 7 -34 20 -41 17 -9 20 -21 20 -78 1 -104 16 -201 35
-223 21 -22 72 -33 114 -24 27 6 31 11 31 41 0 29 -4 34 -22 34 -46 0 -49 10
-46 131 l3 114 33 3 c29 3 32 6 32 37 0 34 -13 45 -51 45 -15 0 -19 7 -19 38
0 42 -9 82 -19 82 -3 0 -25 -12 -48 -26z"/>
<path d="M13369 15577 c-43 -20 -59 -38 -59 -68 0 -18 -7 -32 -20 -39 -27 -14
-28 -76 -2 -82 17 -5 20 -20 25 -129 4 -68 10 -133 13 -145 12 -45 107 -71
148 -41 28 20 18 61 -16 65 -44 5 -49 21 -46 138 l3 109 35 5 c31 4 35 9 38
37 3 28 0 33 -25 38 -15 4 -34 8 -40 11 -9 2 -13 23 -13 59 0 59 -1 60 -41 42z"/>
<path d="M15753 15564 c-37 -21 -43 -30 -43 -58 0 -25 -5 -35 -20 -39 -15 -4
-20 -14 -20 -36 0 -20 7 -34 20 -41 17 -9 20 -21 20 -73 1 -107 16 -206 35
-227 21 -23 72 -34 114 -25 27 6 31 11 31 41 0 29 -4 34 -22 34 -46 0 -49 10
-46 131 l3 114 33 3 c29 3 32 6 32 37 0 34 -13 45 -51 45 -15 0 -19 7 -19 38
0 42 -9 82 -19 82 -3 0 -25 -12 -48 -26z"/>
<path d="M2272 15458 c-8 -8 -12 -66 -12 -195 0 -173 1 -183 20 -193 12 -6 35
-10 53 -8 l32 3 5 135 c6 165 17 190 85 190 29 0 47 22 43 52 -4 30 -58 37
-95 13 -22 -15 -26 -15 -42 -1 -21 19 -72 21 -89 4z"/>
<path d="M2649 15449 c-47 -25 -83 -65 -103 -117 -20 -53 -20 -76 0 -138 54
-164 285 -178 365 -22 23 45 25 131 5 179 -40 96 -175 146 -267 98z m150 -94
c27 -31 31 -43 31 -91 0 -50 -3 -59 -34 -90 -73 -73 -156 -21 -156 100 0 48 4
58 31 85 44 44 87 43 128 -4z"/>
<path d="M3022 15268 c3 -187 4 -203 21 -206 10 -2 29 -1 41 2 23 6 24 10 28
142 5 134 5 138 32 161 32 27 62 29 94 7 21 -14 22 -22 22 -160 0 -160 1 -162
65 -150 l35 7 0 130 0 131 29 29 c33 33 70 37 94 11 13 -14 17 -46 19 -162 l3
-145 32 -3 c18 -2 42 2 54 9 21 11 22 15 17 158 -6 163 -15 191 -65 221 -49
29 -97 26 -149 -10 l-45 -30 -41 30 c-46 34 -101 40 -134 15 -25 -19 -58 -19
-74 0 -7 8 -28 15 -46 15 l-34 0 2 -202z"/>
<path d="M5512 15450 c-50 -27 -73 -50 -93 -95 -33 -72 -19 -177 31 -230 31
-33 103 -65 145 -65 44 0 114 32 146 67 28 30 59 101 59 133 0 36 -32 115 -58
143 -60 63 -161 84 -230 47z m139 -81 c57 -40 61 -145 7 -199 -43 -43 -86 -41
-127 5 -27 31 -31 43 -31 92 0 51 4 61 32 90 38 39 76 43 119 12z"/>
<path d="M7703 15463 c-10 -3 -13 -53 -13 -198 l0 -194 34 -6 c19 -4 44 -4 55
0 20 6 21 13 21 139 0 127 1 134 25 160 15 16 35 26 53 26 34 0 52 16 52 46 0
36 -68 48 -101 18 -16 -15 -20 -15 -41 0 -22 16 -60 20 -85 9z"/>
<path d="M8065 15453 c-74 -39 -105 -94 -105 -186 0 -107 32 -161 114 -192 67
-26 139 -13 199 34 25 20 22 26 -22 46 -36 16 -41 16 -62 1 -34 -24 -74 -20
-104 9 -14 14 -25 32 -25 39 0 14 84 31 102 20 5 -3 41 -3 80 1 l71 7 -6 50
c-9 76 -34 121 -86 156 -53 36 -106 42 -156 15z"/>
<path d="M8653 15463 c-10 -3 -13 -67 -13 -269 l0 -265 48 3 47 3 3 70 c4 99
4 99 55 74 60 -29 106 -20 156 30 90 90 79 259 -21 331 -47 34 -90 37 -155 9
-28 -11 -34 -11 -51 4 -18 17 -44 21 -69 10z m220 -93 c48 -38 49 -159 2 -206
-33 -33 -71 -31 -106 7 -26 28 -29 38 -29 96 0 58 3 67 29 94 35 34 68 37 104
9z"/>
<path d="M9159 15452 c-49 -22 -93 -105 -63 -116 31 -12 52 -5 84 25 26 26 37
30 63 25 37 -7 34 -5 42 -38 6 -23 2 -30 -27 -48 -18 -11 -47 -20 -65 -20 -34
0 -90 -25 -110 -50 -38 -46 -16 -127 42 -154 45 -22 83 -20 130 7 l39 22 23
-22 c23 -24 58 -29 83 -13 12 7 12 12 2 22 -8 8 -12 54 -12 153 -1 93 -5 148
-13 163 -32 56 -141 78 -218 44z"/>
<path d="M9513 15463 c-10 -3 -13 -53 -13 -198 l0 -193 30 -7 c65 -14 68 -9
72 141 3 134 3 136 31 160 34 29 68 31 93 3 16 -18 19 -39 20 -157 l2 -137 26
-9 c17 -7 34 -6 52 2 l26 13 -3 152 c-3 123 -7 157 -21 176 -43 61 -118 78
-181 41 l-34 -20 -23 20 c-22 19 -51 24 -77 13z"/>
<path d="M10475 15442 c-59 -41 -85 -93 -85 -173 0 -78 18 -127 59 -162 73
-61 176 -60 254 2 24 19 22 24 -18 45 -32 18 -36 18 -69 2 -19 -9 -43 -16 -53
-16 -25 0 -58 28 -67 58 -8 26 -10 25 93 23 40 -1 91 1 113 4 l40 7 -7 57 c-9
72 -25 101 -78 145 -58 47 -121 50 -182 8z"/>
<path d="M10824 15457 c-2 -7 -3 -98 -2 -202 l3 -190 34 -3 c18 -2 38 1 43 6
6 6 11 61 12 123 3 137 9 160 46 182 36 22 63 21 83 -1 14 -15 17 -42 17 -153
0 -92 4 -139 12 -147 15 -15 53 -16 79 -2 18 10 19 21 18 141 -1 121 0 132 20
150 28 27 71 34 96 15 18 -13 21 -29 25 -163 5 -146 5 -148 29 -151 12 -2 34
-1 47 2 24 6 24 6 24 157 0 168 -7 193 -63 228 -19 12 -49 21 -66 21 -35 0
-107 -33 -113 -52 -3 -7 -20 -1 -50 20 -52 35 -109 42 -142 17 -26 -19 -62
-19 -70 0 -7 19 -75 21 -82 2z"/>
<path d="M11543 15464 c-10 -4 -13 -54 -13 -199 l0 -194 35 -7 c67 -12 66 -16
63 203 l-3 198 -35 2 c-19 1 -41 0 -47 -3z"/>
<path d="M11799 15440 c-59 -39 -84 -92 -84 -175 0 -116 60 -189 166 -202 54
-6 114 13 157 51 31 28 27 50 -13 69 -35 17 -35 17 -68 -14 -26 -25 -38 -30
-65 -25 -54 8 -71 39 -72 128 0 76 0 76 34 97 43 27 61 26 92 -4 29 -29 44
-31 85 -10 29 15 29 16 12 41 -50 78 -162 97 -244 44z"/>
<path d="M12967 15448 c-56 -30 -97 -106 -97 -179 0 -60 26 -134 57 -160 61
-52 148 -61 229 -22 51 24 55 48 11 69 -31 15 -36 15 -65 0 -43 -22 -75 -20
-100 7 -24 26 -29 56 -9 58 6 1 51 0 99 -1 120 -2 128 1 128 55 0 143 -136
236 -253 173z"/>
<path d="M14353 15464 c-10 -4 -13 -54 -13 -200 l0 -194 24 -6 c13 -3 35 -4
47 -2 l24 3 0 200 0 200 -35 2 c-19 1 -41 0 -47 -3z"/>
<path d="M14604 15438 c-57 -40 -72 -75 -73 -174 -1 -89 26 -148 85 -181 49
-28 79 -29 127 -3 42 23 57 19 57 -11 0 -50 -16 -59 -99 -59 -43 0 -93 5 -111
11 -66 24 -57 -39 11 -73 23 -12 59 -17 114 -17 91 -1 131 16 165 71 19 31 20
48 18 248 l-3 215 -40 0 c-34 0 -40 -3 -43 -22 -4 -28 -2 -28 -56 2 -60 33
-94 32 -152 -7z m158 -68 c52 -40 55 -145 7 -201 -29 -33 -89 -33 -118 1 -28
34 -30 154 -3 186 32 38 77 44 114 14z"/>
<path d="M15023 15463 c-10 -3 -13 -53 -13 -198 l0 -194 35 -7 c63 -11 65 -7
65 120 0 168 15 199 100 208 31 4 53 54 30 68 -22 14 -74 12 -95 -4 -17 -12
-22 -12 -39 0 -20 14 -59 17 -83 7z"/>
<path d="M15364 15449 c-36 -22 -70 -79 -61 -103 10 -26 51 -19 87 15 26 26
37 30 63 25 37 -7 34 -5 42 -38 6 -23 2 -30 -27 -48 -18 -11 -48 -20 -66 -20
-64 0 -127 -56 -127 -112 0 -31 7 -45 35 -71 29 -27 42 -32 85 -32 37 0 59 6
83 24 33 23 33 23 39 3 6 -23 50 -37 83 -27 16 5 19 11 14 23 -5 10 -10 80
-11 157 -2 81 -9 150 -15 163 -28 56 -161 80 -224 41z"/>
<path d="M15973 15464 c-10 -4 -13 -54 -13 -200 l0 -194 24 -6 c13 -3 35 -4
47 -2 l24 3 0 200 0 200 -35 2 c-19 1 -41 0 -47 -3z"/>
<path d="M16261 15449 c-80 -43 -111 -93 -112 -183 -2 -114 62 -186 179 -203
38 -6 113 20 150 51 40 35 62 89 62 153 0 79 -29 128 -100 171 -63 37 -123 41
-179 11z m148 -94 c27 -31 31 -43 31 -91 0 -50 -3 -59 -34 -90 -44 -44 -83
-45 -125 -4 -71 72 -29 220 64 220 25 0 40 -8 64 -35z"/>
<path d="M16643 15463 c-10 -3 -13 -53 -13 -198 l0 -193 25 -6 c14 -4 36 -4
50 0 l25 6 0 130 0 130 29 29 c34 34 63 37 91 9 18 -18 20 -33 20 -155 0 -134
0 -136 24 -146 14 -7 36 -9 50 -5 l26 6 0 158 c-1 171 -5 189 -56 223 -38 25
-85 24 -135 -2 l-41 -20 -19 20 c-19 20 -49 26 -76 14z"/>
<path d="M8387 15298 c-14 -10 -18 -24 -15 -53 l3 -40 95 0 95 0 3 46 c3 42 1
47 -20 51 -57 11 -144 8 -161 -4z"/>
<path d="M1798 14682 l-28 -3 0 -130 c0 -127 0 -129 23 -130 12 0 39 -2 60 -3
26 -1 50 6 73 22 37 25 39 33 35 137 -3 93 -44 121 -163 107z m121 -48 c30
-38 29 -131 0 -168 -18 -23 -27 -27 -68 -24 l-46 3 -3 94 c-1 52 -1 100 2 108
3 8 22 13 50 13 36 0 48 -5 65 -26z"/>
<path d="M5530 14683 c-8 -3 -24 -15 -35 -27 -17 -17 -20 -34 -20 -110 0 -63
4 -91 13 -93 6 -3 12 -11 12 -18 0 -13 45 -26 65 -19 44 17 64 182 28 234 -26
39 -35 43 -63 33z m31 -33 c16 -9 19 -22 19 -95 0 -63 -4 -87 -16 -99 -19 -20
-23 -20 -46 1 -25 22 -26 157 -1 185 19 21 19 21 44 8z"/>
<path d="M6800 14683 c-8 -3 -24 -15 -35 -27 -17 -17 -20 -34 -20 -110 0 -63
4 -91 13 -93 6 -3 12 -11 12 -19 0 -10 12 -14 38 -14 53 0 72 34 72 130 0 56
-5 80 -21 106 -20 34 -30 38 -59 27z m33 -37 c14 -11 17 -29 17 -97 0 -75 -2
-86 -21 -97 -18 -11 -24 -11 -40 4 -26 23 -28 158 -2 186 19 21 22 22 46 4z"/>
<path d="M7174 14682 c-32 -5 -56 -36 -52 -66 4 -38 22 -37 26 1 6 59 82 52
82 -7 0 -27 -3 -30 -31 -30 -98 0 -108 -155 -11 -164 42 -3 72 30 72 81 0 33
-5 45 -22 54 -19 10 -20 13 -5 23 8 7 19 25 23 40 5 21 1 32 -17 49 -24 23
-32 25 -65 19z"/>
<path d="M2033 14585 c-13 -14 -17 -35 -8 -35 3 0 17 7 30 16 27 18 60 12 69
-13 8 -20 -10 -33 -45 -33 -38 0 -72 -36 -64 -69 8 -33 7 -32 41 -32 70 0 93
3 96 14 2 7 2 46 -1 87 l-6 75 -50 2 c-34 2 -54 -2 -62 -12z"/>
<path d="M2333 14585 c-13 -14 -17 -35 -8 -35 3 0 16 7 28 15 31 20 69 9 65
-19 -2 -16 -11 -22 -36 -24 -40 -4 -72 -29 -72 -57 0 -37 13 -45 78 -44 l62 1
0 73 c0 40 -3 80 -6 89 -8 21 -94 21 -111 1z"/>
<path d="M2817 14582 c-25 -27 -23 -123 2 -146 25 -23 72 -23 99 0 29 25 31
110 3 142 -23 28 -81 30 -104 4z"/>
<path d="M3516 14581 c-23 -26 -4 -37 28 -16 20 13 29 14 46 5 32 -17 21 -44
-19 -48 -45 -5 -73 -32 -69 -68 3 -32 31 -42 100 -36 l38 4 0 73 c0 40 -3 80
-6 89 -9 24 -96 22 -118 -3z"/>
<path d="M4117 14580 c-11 -13 -17 -37 -17 -71 0 -61 24 -92 71 -91 31 1 62
29 52 46 -4 5 -12 1 -19 -8 -16 -22 -63 -18 -78 7 -15 24 6 37 62 37 42 0 46
4 42 45 -5 52 -78 75 -113 35z"/>
<path d="M6274 14579 c-23 -25 -25 -120 -2 -142 25 -26 72 -30 96 -9 30 26 32
130 4 155 -26 24 -75 21 -98 -4z"/>
<path d="M629 13294 c-30 -37 -38 -83 -23 -135 21 -70 57 -87 99 -44 34 33 36
128 4 169 -23 29 -60 34 -80 10z"/>
<path d="M798 13300 c-9 -6 -22 -26 -28 -45 -6 -19 -16 -35 -21 -35 -14 0 -11
-26 6 -40 8 -7 15 -21 15 -31 0 -22 37 -59 60 -59 9 0 27 11 40 25 33 35 33
135 -1 171 -24 26 -44 29 -71 14z"/>
<path d="M1032 13285 c-31 -39 -37 -98 -15 -142 10 -20 26 -41 35 -47 25 -15
72 15 78 51 7 40 35 41 46 1 6 -18 21 -39 36 -47 23 -13 28 -13 51 2 43 28 50
146 10 189 -33 37 -84 14 -98 -45 -9 -36 -39 -32 -43 5 -3 29 -35 58 -63 58
-10 0 -27 -11 -37 -25z"/>
<path d="M1357 13293 c-8 -10 -19 -30 -22 -45 -4 -16 -11 -28 -16 -28 -14 0
-10 -30 6 -46 8 -9 15 -24 15 -34 0 -21 35 -50 61 -50 35 0 54 39 54 110 0 53
-4 73 -19 89 -23 26 -57 27 -79 4z"/>
<path d="M638 10360 c-18 -11 -34 -89 -24 -116 6 -16 8 -16 24 0 10 9 24 16
30 16 17 0 34 -38 27 -60 -7 -21 -39 -27 -50 -10 -8 13 -35 13 -35 1 0 -18 32
-41 57 -41 29 0 97 65 87 82 -4 7 -2 8 4 4 7 -4 12 -16 12 -26 0 -23 37 -60
60 -60 9 0 27 11 39 24 19 20 23 36 23 86 0 50 -4 66 -23 86 -39 42 -83 23
-101 -42 -16 -59 -25 -66 -53 -38 -13 13 -33 24 -45 24 -23 0 -24 4 -10 31 6
11 21 19 35 19 29 0 41 15 19 24 -23 9 -57 7 -76 -4z"/>
<path d="M1032 10345 c-28 -36 -37 -95 -19 -136 20 -49 42 -65 74 -53 28 10
39 24 48 67 5 24 8 27 20 17 8 -7 17 -22 21 -33 24 -81 101 -73 119 11 8 39
25 37 38 -4 32 -100 116 -81 125 29 5 63 -9 104 -42 119 -20 9 -30 8 -51 -6
-14 -9 -25 -25 -25 -36 0 -10 -8 -26 -17 -36 -17 -17 -18 -15 -29 22 -7 24
-20 44 -36 53 -23 13 -29 13 -51 -2 -14 -9 -28 -30 -32 -47 -8 -38 -38 -38
-43 0 -5 28 -37 60 -63 60 -10 0 -27 -11 -37 -25z"/>
<path d="M624 7429 c-27 -30 -27 -138 0 -168 27 -30 76 -25 93 9 20 39 17 133
-6 158 -23 28 -62 28 -87 1z"/>
<path d="M786 7428 c-8 -13 -17 -33 -21 -45 -3 -13 -11 -23 -16 -23 -14 0 -11
-26 6 -40 8 -7 15 -20 15 -30 0 -24 32 -50 63 -50 38 0 60 38 60 105 0 69 -22
105 -63 105 -20 0 -34 -7 -44 -22z"/>
<path d="M1033 7438 c-26 -32 -36 -90 -23 -132 16 -54 27 -66 60 -66 31 0 57
25 62 60 4 34 29 31 41 -5 14 -43 26 -55 57 -55 45 0 65 33 65 105 0 73 -20
105 -66 105 -30 0 -38 -9 -54 -54 -13 -40 -33 -44 -41 -9 -4 15 -14 36 -22 46
-18 20 -65 23 -79 5z"/>
<path d="M1346 7416 c-9 -19 -16 -39 -16 -44 0 -6 -5 -12 -12 -14 -7 -3 -2
-23 16 -62 26 -56 28 -57 64 -54 49 4 64 33 60 114 -4 70 -21 94 -66 94 -24 0
-33 -7 -46 -34z"/>
<path d="M626 4501 c-3 -4 -8 -34 -12 -65 -6 -47 -4 -56 9 -56 9 0 19 5 22 10
10 17 43 11 50 -9 9 -28 -5 -51 -31 -51 -13 0 -24 5 -24 10 0 6 -7 10 -16 10
-24 0 -12 -33 18 -48 35 -16 71 -2 94 37 21 35 34 40 34 13 0 -26 32 -52 63
-52 38 0 60 38 59 106 0 68 -21 104 -61 104 -35 0 -57 -24 -66 -73 -9 -47 -21
-55 -46 -28 -11 12 -28 21 -39 21 -10 0 -21 4 -24 9 -10 16 5 41 24 41 28 0
51 11 44 21 -7 12 -91 12 -98 0z"/>
<path d="M1033 4496 c-6 -7 -17 -32 -24 -55 -13 -43 -3 -95 23 -128 27 -34 98
-1 98 45 0 41 32 36 45 -8 12 -39 25 -50 60 -50 28 0 35 5 50 36 21 45 16 125
-10 154 -31 34 -95 19 -95 -24 0 -19 -29 -48 -41 -41 -5 4 -9 16 -9 29 0 45
-68 75 -97 42z"/>
<path d="M1357 4493 c-8 -10 -19 -30 -22 -45 -4 -16 -11 -28 -16 -28 -5 0 -9
-9 -9 -20 0 -11 4 -20 8 -20 5 0 16 -18 26 -40 15 -34 22 -40 47 -40 50 0 64
24 64 106 0 61 -3 76 -20 88 -27 21 -58 20 -78 -1z"/>
<path d="M1358 1553 c-46 -52 -37 -165 16 -191 56 -28 96 34 83 129 -9 70 -63
103 -99 62z"/>
<path d="M2463 892 c-464 -1 -713 -6 -713 -12 0 -7 236 -10 680 -10 535 0 682
-3 685 -12 3 -7 6 -42 8 -78 2 -62 3 -65 29 -68 l27 -3 3 78 3 78 1142 3 1142
2 3 -77 c3 -76 4 -78 28 -78 24 0 25 3 30 75 l5 75 1128 3 1127 2 1 -22 c1
-13 2 -48 3 -78 1 -52 2 -55 28 -58 l27 -3 3 78 3 78 1145 0 1145 0 1 -65 c2
-91 1 -90 29 -90 23 0 24 3 27 78 l3 77 1145 0 1145 0 0 -75 c0 -74 1 -75 27
-78 l27 -3 3 78 3 78 1130 0 1130 0 3 -77 c3 -75 4 -78 27 -78 23 0 24 3 27
78 l3 77 1145 0 1145 0 3 -77 c3 -75 4 -78 27 -78 23 0 24 3 27 78 l3 77 1130
0 1130 0 3 -77 c3 -75 4 -78 27 -78 23 0 24 3 27 78 l3 77 1145 0 1145 0 3
-77 c3 -75 4 -78 27 -78 23 0 24 3 27 78 l3 77 1130 0 1130 0 3 -77 c3 -75 4
-78 27 -78 23 0 24 3 27 78 l3 77 688 3 c446 1 687 6 687 12 0 6 -3 10 -7 10
-114 2 -22631 4 -23120 2z"/>
<path d="M3420 546 c0 -23 -4 -26 -38 -26 -51 0 -75 -26 -75 -80 0 -61 24 -82
92 -78 l55 3 0 100 c1 87 -1 100 -16 103 -14 3 -18 -3 -18 -22z"/>
<path d="M4640 464 c0 -80 3 -105 13 -102 6 3 14 26 17 52 5 43 6 46 20 29 9
-10 22 -33 29 -51 10 -24 19 -32 34 -30 18 3 20 11 21 96 0 52 -2 99 -5 104
-13 21 -29 -5 -29 -48 0 -24 -4 -44 -8 -44 -9 0 -36 49 -46 83 -3 9 -15 17
-26 17 -19 0 -20 -6 -20 -106z"/>
<path d="M6800 464 c0 -80 3 -105 13 -102 6 3 13 25 15 51 3 44 4 45 21 28 10
-10 23 -31 28 -47 6 -18 18 -30 31 -32 20 -3 22 1 22 40 1 24 3 66 5 94 1 28
-1 57 -5 64 -14 23 -30 -1 -30 -46 0 -24 -4 -44 -9 -44 -5 0 -18 23 -30 50
-15 36 -27 50 -41 50 -19 0 -20 -7 -20 -106z"/>
<path d="M7420 465 c0 -96 2 -106 18 -103 12 2 18 14 20 43 4 72 11 87 35 83
20 -3 22 -10 25 -66 3 -53 6 -63 20 -60 13 2 18 16 20 57 4 70 -15 101 -63
101 -27 0 -34 4 -37 22 -2 13 -11 24 -20 26 -16 3 -18 -7 -18 -103z"/>
<path d="M9230 464 c0 -95 2 -105 18 -102 10 2 18 14 20 33 4 34 16 45 53 45
17 0 33 9 43 25 21 33 20 57 -4 83 -17 17 -32 22 -75 22 l-55 0 0 -106z"/>
<path d="M18965 538 c-24 -28 -27 -39 -23 -85 6 -68 32 -92 104 -93 43 0 52 3
63 24 7 12 11 34 9 47 -2 20 -10 25 -40 27 -40 3 -52 -12 -17 -21 29 -8 21
-39 -14 -51 -23 -8 -31 -6 -49 11 -25 25 -28 105 -4 128 18 18 59 19 86 3 27
-17 37 -2 15 22 -13 14 -31 20 -61 20 -35 0 -47 -5 -69 -32z"/>
<path d="M21485 538 c-7 -39 -1 -165 8 -174 3 -4 13 -4 22 -1 11 5 15 21 15
61 0 58 8 71 40 61 17 -5 20 -15 20 -66 0 -46 3 -59 15 -59 12 0 15 14 15 70
0 75 -10 90 -64 90 -18 0 -25 6 -28 22 -2 13 -11 24 -20 26 -12 2 -18 -6 -23
-30z"/>
<path d="M23637 563 c-2 -4 10 -51 27 -103 28 -86 33 -95 58 -98 28 -3 41 12
58 67 5 14 18 50 29 79 16 44 17 54 6 58 -18 7 -35 -3 -35 -20 0 -8 -9 -34
-21 -60 -25 -59 -45 -51 -69 25 -16 49 -40 73 -53 52z"/>
<path d="M7315 535 c-7 -10 -30 -16 -72 -18 l-63 -2 0 -78 c0 -69 2 -78 17
-75 12 2 18 15 20 43 5 80 9 86 56 83 41 -3 42 -4 43 -38 1 -64 12 -90 39 -90
25 0 33 14 15 25 -17 11 -12 102 6 109 14 5 13 10 -8 31 -27 29 -39 31 -53 10z"/>
<path d="M2926 494 c-24 -23 -28 -32 -23 -66 3 -22 14 -46 24 -53 27 -21 87
-19 107 4 27 29 25 85 -4 116 -30 32 -68 32 -104 -1z"/>
<path d="M3516 504 c-18 -18 -20 -30 -6 -39 6 -3 13 1 16 9 3 9 14 16 24 16
34 0 30 -17 -10 -36 -36 -18 -73 -64 -50 -64 6 0 10 -7 10 -15 0 -12 13 -15
61 -15 l62 0 -5 65 c-3 36 -11 72 -18 80 -16 20 -64 19 -84 -1z"/>
<path d="M4842 497 c-28 -30 -30 -97 -4 -120 25 -23 85 -22 106 2 23 25 4 37
-28 16 -22 -14 -25 -14 -40 0 -30 30 -17 40 59 47 24 2 29 7 27 23 -10 56 -80
74 -120 32z"/>
<path d="M5014 506 c-3 -9 3 -44 13 -78 15 -50 23 -64 41 -66 17 -3 26 5 39
33 20 41 36 41 43 -1 4 -23 11 -29 29 -29 21 0 29 11 53 69 15 39 24 74 20 78
-15 15 -43 -4 -49 -34 -7 -35 -21 -32 -43 8 -24 42 -46 42 -64 0 -18 -44 -44
-47 -53 -6 -7 36 -21 48 -29 26z"/>
<path d="M5542 493 c-45 -56 -16 -133 49 -133 37 1 75 23 65 39 -4 6 -16 4
-34 -4 -24 -13 -29 -13 -47 6 -17 17 -18 21 -5 29 8 5 34 10 58 10 34 0 42 3
42 18 0 28 -42 62 -76 62 -21 0 -37 -9 -52 -27z"/>
<path d="M5872 504 c-31 -21 -28 -52 6 -67 15 -6 29 -14 32 -18 3 -3 14 -9 25
-13 16 -6 17 -9 5 -16 -21 -13 -26 -12 -45 6 -8 9 -23 13 -32 10 -14 -6 -14
-8 3 -27 14 -15 28 -19 63 -17 40 3 47 7 56 31 8 24 6 31 -9 43 -16 11 -17 16
-6 29 11 13 9 19 -10 35 -28 24 -58 25 -88 4z"/>
<path d="M6056 499 c-48 -56 -18 -139 50 -139 35 0 64 18 64 39 0 15 -6 14
-36 -6 -24 -15 -26 -15 -47 6 -19 19 -20 23 -7 31 8 5 34 10 58 10 34 0 42 3
42 18 0 54 -88 83 -124 41z"/>
<path d="M7003 496 c-33 -34 -32 -98 2 -120 60 -39 125 -6 125 64 0 71 -80
106 -127 56z"/>
<path d="M7915 500 c-14 -15 -16 -23 -7 -32 8 -8 13 -7 18 5 7 19 39 23 49 6
4 -6 -2 -13 -14 -16 -12 -3 -21 -9 -21 -14 0 -5 -6 -9 -14 -9 -26 0 -40 -28
-28 -55 10 -22 18 -25 67 -25 l55 0 0 58 c0 69 -19 102 -59 102 -15 0 -36 -9
-46 -20z"/>
<path d="M8219 491 c-34 -35 -37 -68 -8 -105 29 -37 89 -37 118 0 29 36 27 77
-4 109 -34 33 -70 32 -106 -4z"/>
<path d="M9432 497 c-28 -29 -29 -86 -3 -115 24 -29 81 -30 106 -2 25 28 11
38 -25 17 -26 -16 -30 -16 -44 -1 -30 29 -17 39 58 46 38 4 42 18 16 51 -28
35 -77 37 -108 4z"/>
<path d="M10000 500 c-31 -31 -24 -48 32 -76 38 -19 48 -28 37 -35 -20 -12
-25 -11 -44 7 -8 9 -23 13 -32 10 -14 -6 -14 -8 2 -26 21 -23 93 -28 113 -8
18 18 15 56 -5 67 -17 9 -17 11 1 24 18 13 17 14 -9 35 -35 27 -69 28 -95 2z"/>
<path d="M10590 505 c-7 -8 -9 -23 -5 -32 6 -17 7 -17 16 0 11 19 53 24 47 5
-2 -6 -19 -19 -38 -29 -43 -23 -54 -43 -40 -69 9 -16 21 -20 64 -20 29 0 55 2
57 4 11 11 -7 138 -21 146 -23 15 -66 12 -80 -5z"/>
<path d="M11020 500 c-13 -25 -2 -50 12 -26 10 18 48 22 48 5 0 -6 -9 -13 -20
-16 -11 -3 -20 -9 -20 -14 0 -5 -7 -9 -15 -9 -22 0 -38 -36 -25 -60 9 -16 21
-20 65 -20 29 0 56 3 58 8 9 17 -10 134 -23 142 -26 17 -69 11 -80 -10z"/>
<path d="M12075 500 c-14 -15 -16 -23 -7 -32 8 -8 13 -7 18 5 7 18 39 23 49 8
3 -5 -4 -12 -15 -16 -11 -3 -20 -11 -20 -16 0 -5 -9 -9 -20 -9 -21 0 -46 -42
-29 -48 5 -2 9 -10 9 -18 0 -11 15 -14 61 -14 l62 0 -5 65 c-3 36 -11 72 -18
80 -18 21 -64 19 -85 -5z"/>
<path d="M12517 497 c-37 -32 -38 -97 -2 -121 58 -38 125 -5 125 63 0 72 -70
105 -123 58z"/>
<path d="M13100 500 c-13 -25 -2 -50 12 -26 10 18 48 22 48 5 0 -6 -9 -13 -20
-16 -11 -3 -20 -9 -20 -14 0 -5 -7 -9 -15 -9 -20 0 -35 -40 -23 -62 7 -14 21
-18 63 -18 29 0 56 3 58 8 9 17 -10 134 -23 142 -26 17 -69 11 -80 -10z"/>
<path d="M14619 499 c-32 -27 -34 -100 -4 -123 38 -29 115 -14 115 23 0 15 -6
14 -36 -6 -24 -15 -26 -15 -47 6 -19 19 -20 23 -7 31 8 5 34 10 58 10 34 0 42
3 42 18 0 28 -38 62 -69 62 -15 0 -39 -9 -52 -21z"/>
<path d="M14966 504 c-18 -18 -20 -30 -6 -39 6 -3 13 1 16 9 3 9 14 16 24 16
36 0 29 -17 -15 -39 -44 -22 -53 -39 -39 -75 5 -12 21 -16 66 -16 l61 0 -5 65
c-3 36 -11 72 -18 80 -16 20 -64 19 -84 -1z"/>
<path d="M15126 498 c-25 -35 -20 -46 29 -69 25 -12 48 -25 51 -30 8 -13 -40
-11 -53 2 -7 7 -19 9 -29 5 -16 -6 -16 -8 1 -26 21 -23 93 -28 113 -8 18 18
15 55 -5 67 -17 10 -17 12 -1 24 16 13 16 15 -5 35 -31 29 -81 29 -101 0z"/>
<path d="M16566 499 c-21 -16 -26 -29 -26 -64 0 -34 5 -46 25 -59 60 -39 125
-6 125 64 0 69 -69 103 -124 59z"/>
<path d="M17126 493 c-25 -34 -26 -86 -1 -113 24 -26 85 -27 109 -1 24 26 4
36 -29 15 -25 -16 -27 -16 -48 5 -19 19 -20 23 -7 31 8 5 34 10 58 10 37 0 42
3 42 23 0 58 -89 79 -124 30z"/>
<path d="M19182 497 c-28 -30 -30 -97 -4 -120 25 -23 85 -22 106 2 23 25 4 38
-26 17 -23 -17 -58 -6 -58 18 0 17 22 26 66 26 29 0 34 3 34 24 0 52 -79 74
-118 33z"/>
<path d="M19376 499 c-34 -27 -37 -95 -6 -122 31 -27 85 -22 109 9 62 79 -25
174 -103 113z"/>
<path d="M19691 499 c-24 -22 -30 -96 -9 -117 8 -8 8 -15 -2 -27 -20 -24 13
-55 61 -55 64 0 80 27 77 129 l-3 84 -51 3 c-40 2 -57 -2 -73 -17z"/>
<path d="M19968 509 c-10 -5 -18 -17 -18 -24 0 -17 16 -20 25 -5 9 14 48 13
43 -2 -2 -6 -19 -19 -38 -29 -43 -23 -54 -43 -40 -69 9 -16 21 -20 64 -20 29
0 55 2 57 4 11 11 -7 138 -21 146 -19 13 -51 12 -72 -1z"/>
<path d="M21028 502 c-65 -40 -39 -134 39 -140 51 -4 78 23 78 80 0 68 -58 97
-117 60z"/>
<path d="M21986 504 c-20 -19 -20 -30 -1 -38 9 -3 15 0 15 9 0 8 9 15 19 15
36 0 30 -16 -15 -40 -43 -24 -51 -40 -38 -74 5 -12 21 -16 66 -16 l61 0 -5 65
c-3 36 -11 72 -18 80 -16 20 -64 19 -84 -1z"/>
<path d="M22292 500 c-58 -48 -27 -140 47 -140 50 0 76 28 76 82 0 67 -71 101
-123 58z"/>
<path d="M22826 504 c-18 -17 -20 -30 -7 -38 5 -3 11 1 15 9 6 17 50 21 44 3
-2 -6 -19 -19 -38 -30 -41 -21 -53 -47 -35 -71 10 -14 25 -17 67 -15 l53 3 -2
58 c-1 31 -7 66 -13 77 -13 24 -62 27 -84 4z"/>
<path d="M24092 497 c-23 -25 -31 -100 -12 -112 5 -3 7 -19 4 -34 -5 -23 -2
-32 14 -40 33 -17 80 -13 102 9 18 18 20 31 18 107 l-3 87 -51 3 c-42 2 -55
-1 -72 -20z"/>
<path d="M24636 504 c-18 -17 -20 -30 -7 -38 5 -3 11 1 15 9 3 8 14 15 25 15
36 0 31 -17 -13 -39 -50 -24 -61 -43 -43 -71 9 -16 23 -20 64 -20 28 0 54 3
56 8 9 17 -10 134 -23 142 -23 15 -57 12 -74 -6z"/>
</g>
</svg>
